<svg xmlns="http://www.w3.org/2000/svg" xmlns:xlink="http://www.w3.org/1999/xlink" viewBox="0 65 1720 317.054"><defs><style>.a{clip-path:url(#b);}.b,.c{fill:#fff;}.c{font-size:316px;font-family:Nunito-Black, Nunito;font-weight:800;}</style><clipPath id="b"><rect y="65" width="1720" height="317.054"/></clipPath></defs><g id="a" class="a"><g transform="translate(35.515 89.926)"><path class="b" d="M289.644,3.293H27.325A27.606,27.606,0,0,0,0,30.618V210.962a27.606,27.606,0,0,0,27.325,27.325h54.65V284.27l45.048-49.556,27.319-31.757a5.466,5.466,0,0,1,8.29,7.126l-24.259,28.2H289.644a27.606,27.606,0,0,0,27.325-27.325V30.618A27.606,27.606,0,0,0,289.644,3.293Z" transform="translate(0 0)"/></g><text class="c" transform="translate(395 324)"><tspan x="0" y="0">NearMe!</tspan></text></g></svg>